<svg xmlns="http://www.w3.org/2000/svg" viewBox="0 0 1032 1024" version="1.1"><path d="M 517.500 25.593 C 514.750 25.803, 506.088 26.435, 498.251 26.996 C 411.661 33.195, 326.497 68.020, 256.665 125.786 C 244.051 136.221, 218.959 160.960, 205.736 176 C 166.877 220.198, 134.889 276.233, 115.921 333.333 C 90.275 410.534, 85.327 492.463, 101.808 567 C 102.926 572.057, 104.227 570.981, 105.688 563.792 C 115.165 517.137, 149.957 456.820, 204 393.354 C 229.771 363.089, 285.787 308.696, 327 273.916 C 355.848 249.571, 399.732 215.589, 429.500 194.544 C 456.655 175.347, 463.113 170.921, 484.633 156.759 C 535.683 123.165, 581.904 96.253, 631.756 71.096 C 651.514 61.125, 654.455 58.645, 654.455 51.948 C 654.455 47.471, 651.974 43.555, 647.757 41.375 C 640.809 37.781, 607.072 31.045, 580.500 27.946 C 564.482 26.078, 528.640 24.739, 517.500 25.593 M 605.500 139.596 C 604.400 139.860, 600.350 140.796, 596.500 141.675 C 592.650 142.554, 589.050 143.598, 588.500 143.994 C 587.950 144.390, 583.225 145.949, 578 147.457 C 572.775 148.965, 563.777 152.292, 558.004 154.850 C 528.960 167.717, 458.594 210.564, 413.500 242.839 C 326.107 305.389, 263.134 361.503, 211.877 422.500 C 203.587 432.366, 188.873 451.798, 181.967 462 C 175.329 471.808, 160.033 497.366, 160.513 497.846 C 160.745 498.079, 166.462 493.114, 173.218 486.814 C 252.917 412.488, 406.524 304.377, 580 200.514 C 612.787 180.885, 621.324 175.088, 625.385 169.703 C 630.789 162.536, 634.227 153.876, 632.172 152.606 C 631.652 152.285, 630.929 150.434, 630.565 148.493 C 629.556 143.118, 623.617 139.751, 614.507 139.392 C 610.653 139.240, 606.600 139.332, 605.500 139.596 M 276 172.593 C 255.332 178.083, 240.006 195.163, 236.914 216.152 C 232.546 245.793, 255.135 272.131, 284.971 272.186 C 316.282 272.244, 341.740 243.359, 337.135 213 C 332.732 183.970, 304.189 165.105, 276 172.593 M 918 294.499 C 884.806 303.531, 756.618 392.871, 640.500 487.902 C 599.916 521.116, 539.882 573.025, 507.465 602.932 C 504.146 605.995, 491.870 617.275, 480.185 628 C 468.500 638.725, 457.793 649.231, 456.391 651.348 C 448.983 662.532, 449.289 674.309, 457.144 680.293 C 464.060 685.562, 477.153 686.325, 489.113 682.158 C 497.274 679.314, 528.673 664.651, 558.039 649.971 C 641.842 608.077, 725.703 572.082, 787.500 551.482 C 852.437 529.836, 915.534 515.834, 961.220 512.931 C 978.897 511.808, 983.101 510.674, 990.614 505.002 C 994.567 502.018, 996.667 499.392, 999.176 494.300 C 1002.471 487.612, 1002.503 487.408, 1002.838 471.154 C 1003.352 446.253, 1000.494 416.018, 994.933 387.500 C 988.871 356.420, 984.481 344.964, 969.213 320.398 C 960.086 305.712, 955.655 301.137, 946.333 296.775 C 938.425 293.074, 926.699 292.133, 918 294.499 M 914.168 425.146 C 902.183 431.078, 900.875 448.417, 911.862 455.718 C 928.295 466.637, 947.480 447.413, 936.583 430.946 C 931.666 423.515, 922.338 421.102, 914.168 425.146 M 855.502 436.575 C 850.993 438.926, 848.908 441.085, 846.881 445.500 C 842.204 455.685, 847.658 467.134, 858.631 470.164 C 870.928 473.559, 883.502 460.750, 880.097 448.295 C 877.143 437.490, 864.919 431.665, 855.502 436.575 M 800.123 448.992 C 790.631 451.261, 784.460 461.568, 786.984 470.940 C 789.122 478.879, 795.793 484, 804 484 C 818.040 484, 826.461 468.571, 819.005 456.508 C 815.539 450.901, 806.760 447.406, 800.123 448.992 M 142 711.896 C 142 713.990, 155.762 741.647, 163.448 755 C 198.142 815.273, 245.016 866.023, 300.963 903.889 C 331.774 924.743, 359.822 939.085, 397 952.996 C 415.997 960.104, 429.939 964.412, 430.831 963.448 C 431.199 963.051, 430.990 962.543, 430.366 962.319 C 427.312 961.220, 411.740 948.928, 405.885 942.993 C 383.404 920.206, 376.883 892.669, 386.641 861.729 C 397.781 826.405, 427.998 794.323, 508.755 732.075 C 515.480 726.891, 520.837 722.504, 520.659 722.326 C 520.481 722.148, 512.048 725.868, 501.918 730.593 C 445.767 756.782, 401.690 771.567, 360 778.195 C 347.257 780.221, 341.986 780.497, 316.500 780.479 C 289.284 780.460, 286.528 780.287, 271.699 777.675 C 223.488 769.184, 183.751 749.676, 149.250 717.561 C 145.262 713.850, 142 711.300, 142 711.896" stroke="none" fill="#193b70" fill-rule="evenodd"></path><path d="M 797.992 136.030 C 778.320 137.806, 753.090 145.669, 725 158.778 C 648.962 194.264, 562.272 243.248, 456 310.777 C 428.739 328.099, 425 330.660, 425 332.007 C 425 332.390, 428.262 334.196, 432.250 336.019 C 461.991 349.620, 498.269 373.783, 525.500 398.128 C 540.008 411.099, 574.391 444.936, 585.757 457.428 L 594.790 467.356 603.290 460.428 C 702.415 379.633, 775.355 325.067, 856.836 270.750 C 876.879 257.390, 890.371 247.698, 893.598 244.345 C 912.260 224.954, 912.168 196.286, 893.365 171.830 C 883.158 158.553, 863.313 145.693, 844.500 140.163 C 831.079 136.219, 813.357 134.644, 797.992 136.030 M 623 140.401 C 623 140.622, 624.575 141.732, 626.500 142.867 C 628.425 144.003, 630 144.509, 630 143.992 C 630 143.475, 628.672 142.365, 627.050 141.526 C 624.048 139.973, 623 139.682, 623 140.401 M 573.580 146.442 C 570.526 148.124, 568.021 149.783, 568.014 150.129 C 567.999 150.789, 587.460 144.873, 588.403 143.930 C 588.703 143.630, 586.740 143.385, 584.041 143.385 C 580.445 143.385, 577.649 144.202, 573.580 146.442 M 630.558 148.500 C 630.943 150.150, 631.708 151.950, 632.258 152.500 C 632.925 153.167, 633.025 152.500, 632.558 150.500 C 632.173 148.850, 631.408 147.050, 630.858 146.500 C 630.192 145.833, 630.092 146.500, 630.558 148.500 M 627.155 167.224 C 624.803 170.939, 624.984 171.614, 627.914 170.046 C 629.163 169.378, 630 167.940, 630 166.465 C 630 163.247, 629.607 163.352, 627.155 167.224 M 383.348 358.859 C 352.532 379.610, 333.249 393.058, 316.187 405.700 L 304.873 414.082 309.869 419.791 C 312.617 422.931, 323.191 433.791, 333.367 443.924 L 351.869 462.349 357.684 459.265 C 376.740 449.162, 398.704 448.871, 414 458.521 C 419.190 461.795, 426.841 470.415, 429.321 475.783 C 431.122 479.682, 431.500 482.322, 431.500 491 C 431.500 500.986, 431.324 501.868, 427.913 509.012 C 425.939 513.143, 422.227 519.099, 419.663 522.247 C 417.098 525.396, 415 528.277, 415 528.651 C 415 529.421, 419.890 534.636, 445.656 561.340 L 463.834 580.181 484.081 562.340 C 513.950 536.021, 541.269 512.428, 561.476 495.500 C 571.325 487.250, 580.744 479.313, 582.408 477.862 L 585.434 475.223 580.486 469.362 C 573.905 461.564, 553.188 440.292, 549.847 437.901 L 547.194 436.002 531.347 447.635 C 522.631 454.034, 512.025 461.909, 507.777 465.135 C 503.529 468.361, 499.305 471, 498.389 471 C 496.466 471, 489.912 465.908, 447.633 431.570 C 430.656 417.781, 415.918 405.883, 414.883 405.128 C 413.847 404.373, 413.014 403.023, 413.031 402.128 C 413.049 401.185, 417.994 397.163, 424.781 392.572 C 431.226 388.212, 442.264 380.564, 449.309 375.576 L 462.119 366.506 459.309 364.244 C 456.093 361.655, 424.084 345.182, 416.348 342.136 L 411.196 340.107 383.348 358.859 M 463.844 375.292 C 445.054 388.067, 425.005 402.314, 425.037 402.868 C 425.058 403.215, 426.799 404.850, 428.907 406.500 C 431.014 408.150, 446.827 420.975, 464.045 435 C 481.264 449.025, 495.960 460.866, 496.702 461.314 C 497.620 461.868, 503.996 457.869, 516.631 448.814 C 526.850 441.491, 536.776 434.150, 538.689 432.500 L 542.167 429.500 527.833 416.375 C 506.061 396.438, 484.156 378.814, 474.219 373.239 L 470.189 370.978 463.844 375.292 M 282.379 430.631 C 268.120 441.295, 264.176 444.357, 239.500 463.930 C 192.067 501.552, 162.150 529.237, 151.528 545.339 C 132.340 574.425, 127.852 609.413, 139.374 640.088 C 143.126 650.076, 150.571 663.039, 156.338 669.624 L 160.176 674.007 162.972 671.754 C 164.510 670.514, 174.217 662.300, 184.543 653.500 C 232.821 612.357, 274.292 578, 275.676 578 C 277.300 578, 279.215 581.595, 278.813 583.888 C 278.641 584.870, 260.050 601.796, 237.500 621.501 C 214.950 641.206, 190.290 662.939, 182.699 669.796 L 168.899 682.263 171.112 684.619 C 174.641 688.375, 186.787 696.390, 195.797 700.909 C 205.641 705.845, 218.276 710.188, 230 712.663 C 242.274 715.255, 274.112 715.244, 285.947 712.644 C 297.819 710.035, 308.013 706.576, 318.664 701.541 C 335.519 693.573, 341.400 689.156, 374.602 659.529 C 409.657 628.249, 436.642 604.327, 446.250 596.012 C 451.612 591.371, 456 587.183, 456 586.705 C 456 586.227, 452.285 581.935, 447.744 577.168 C 443.203 572.401, 432.330 560.962, 423.582 551.750 C 414.833 542.538, 407.274 535, 406.783 535 C 406.292 535, 402.878 536.819, 399.195 539.043 C 382.402 549.184, 360.385 550.359, 343.978 541.989 C 337.897 538.887, 330.583 531.517, 327.459 525.345 C 324.710 519.916, 324.500 518.713, 324.500 508.425 C 324.500 497.412, 324.524 497.302, 328.711 488.925 C 331.085 484.173, 335.421 477.719, 338.654 474.123 L 344.386 467.746 320.657 444.373 C 307.606 431.518, 296.552 421, 296.093 421 C 295.634 421, 289.462 425.334, 282.379 430.631 M 379 461.690 C 367.957 463.537, 354.154 471.474, 346.127 480.593 C 336.807 491.181, 332.838 505.975, 336.422 516.765 C 341.111 530.884, 358.225 539.760, 375.451 537.008 C 393.998 534.045, 410.042 522.625, 417.297 507.223 C 420.072 501.332, 420.465 499.448, 420.475 492 C 420.485 484.717, 420.107 482.784, 417.836 478.500 C 411.125 465.836, 395.263 458.971, 379 461.690 M 374.237 490.997 C 369.605 493.821, 367.316 498.935, 368.935 502.843 C 371.572 509.209, 381.094 509.243, 386.426 502.905 C 393.707 494.252, 384.174 484.939, 374.237 490.997" stroke="none" fill="#40c2b5" fill-rule="evenodd"></path><path d="M 724.301 92.006 C 700.126 94.523, 673.046 101.818, 642.500 114.041 C 619.269 123.337, 582 141.181, 582 143.008 C 582 144.341, 582.224 144.318, 593.591 141.838 C 605.357 139.272, 620.872 138.813, 625.787 140.887 C 630.507 142.878, 633.395 149.496, 632.472 156.207 C 632.095 158.943, 631.163 162.378, 630.400 163.841 C 627.180 170.011, 629.533 169.371, 643.674 160.227 C 673.907 140.678, 698.096 126.494, 720.602 115.120 C 734.931 107.878, 742.924 104.718, 757.334 100.598 C 763.293 98.894, 768.243 97.050, 768.334 96.500 C 768.868 93.283, 740.169 90.354, 724.301 92.006 M 951.500 565.628 C 949.850 565.809, 943.325 566.454, 937 567.062 C 873.515 573.164, 782.269 600.056, 693 638.973 C 668.425 649.687, 647.521 659.550, 596.602 684.455 C 577.874 693.615, 572.446 696.820, 559.102 706.595 C 475.007 768.199, 427.531 821.550, 417.849 865.328 C 409.053 905.099, 427.436 941.474, 466.536 961.668 C 479.040 968.125, 503.515 975.965, 511.250 975.991 L 514 976 514.017 890.250 C 514.036 796.375, 514.001 797.006, 519.947 784.300 C 523.321 777.089, 532.264 767.103, 538.755 763.298 C 546.874 758.539, 553.115 756.723, 563.500 756.100 L 573.500 755.500 574.021 744.500 C 574.622 731.784, 575.831 728.637, 581.157 725.920 C 585.689 723.608, 590.076 723.471, 594.033 725.517 C 598.787 727.976, 600.316 732.175, 600.942 744.500 L 601.500 755.500 642.884 755.761 C 672.603 755.949, 684.653 755.703, 685.634 754.889 C 686.616 754.074, 687 751.043, 687 744.112 C 687 736.691, 687.423 733.666, 688.835 730.984 C 693.653 721.835, 707.279 722.192, 711.945 731.590 C 712.776 733.264, 713.625 738.959, 713.945 745 L 714.500 755.500 724.500 756.144 C 730 756.499, 735.854 757.224, 737.509 757.756 C 747.206 760.871, 758.997 769.776, 765.025 778.536 C 766.626 780.863, 769.188 786.307, 770.718 790.634 L 773.500 798.500 773.808 857.250 C 774.064 906.091, 774.347 916, 775.482 916 C 777.427 916, 802.355 899.343, 816.267 888.749 C 903.811 822.078, 967.673 719.993, 989.991 611.044 C 993.670 593.085, 993.790 587.238, 990.619 580.429 C 985.112 568.601, 971.474 563.441, 951.500 565.628 M 530.452 808.265 C 529.652 810.349, 530.437 976.771, 531.250 977.584 C 533.903 980.235, 575.146 979.864, 600.500 976.961 C 630.052 973.576, 658.239 967.252, 687.633 957.411 C 714.377 948.457, 754.746 930.212, 756.958 926.078 C 758.082 923.978, 758.499 811.463, 757.393 808.582 C 756.844 807.152, 745.911 807, 643.862 807 C 553.709 807, 530.839 807.255, 530.452 808.265 M 569.923 838.923 C 567.088 841.758, 567 842.143, 567.004 851.673 C 567.010 867.780, 569.065 869.542, 587.035 868.851 C 595.606 868.522, 596.324 868.326, 598.587 865.694 C 600.807 863.113, 601 862.046, 601 852.367 C 601 842.072, 600.937 841.783, 598.077 838.923 C 595.196 836.042, 594.995 836, 584 836 C 573.005 836, 572.804 836.042, 569.923 838.923 M 629.306 838.413 C 626.696 840.658, 626.475 841.439, 626.141 849.577 C 625.452 866.340, 627.830 869, 643.500 869 C 658.638 869, 660.982 866.684, 660.994 851.718 C 661.001 844.162, 659.197 838.711, 656.150 837.080 C 655.040 836.486, 649.177 836, 643.122 836 C 632.925 836, 631.904 836.178, 629.306 838.413 M 690.500 837.208 C 686.563 839.465, 686.064 841.191, 686.032 852.661 L 686 863.822 689.077 866.411 C 691.931 868.813, 692.865 869, 702.012 869 C 707.434 869, 713.003 868.569, 714.387 868.043 C 718.438 866.503, 720 862.177, 720 852.500 C 720 843.366, 718.577 838.914, 715.055 837.030 C 712.435 835.627, 693.010 835.768, 690.500 837.208 M 578.300 891.697 C 572.864 892.044, 571.785 892.466, 569.550 895.123 C 567.209 897.905, 567 898.932, 567 907.626 C 567 917.469, 568.352 922.154, 571.546 923.379 C 575.105 924.745, 589.616 925.203, 593.743 924.081 C 599.760 922.444, 601 919.558, 601 907.196 C 601 898.069, 600.808 897.084, 598.548 894.646 C 597.199 893.191, 595.062 891.995, 593.798 891.989 C 592.534 891.983, 589.925 891.826, 588 891.640 C 586.075 891.454, 581.710 891.479, 578.300 891.697 M 633.873 891.773 C 632.428 891.958, 630.178 893.245, 628.873 894.633 C 626.753 896.887, 626.464 898.246, 626.164 907.399 C 625.840 917.276, 625.924 917.756, 628.503 920.821 L 631.178 924 643.033 924 C 654.122 924, 655.070 923.844, 657.694 921.587 C 660.454 919.214, 660.500 918.994, 660.500 908.112 C 660.500 897.502, 660.393 896.942, 657.871 894.419 C 655.439 891.984, 654.543 891.775, 645.871 891.613 C 640.717 891.516, 635.318 891.589, 633.873 891.773 M 691.329 892.392 C 689.585 893.187, 687.672 894.744, 687.079 895.853 C 686.485 896.961, 686 902.644, 686 908.480 C 686 918.413, 686.157 919.248, 688.455 921.545 C 690.787 923.878, 691.504 924, 702.866 924 L 714.822 924 717.411 920.923 C 719.815 918.066, 720 917.139, 720 907.939 C 720 898.482, 719.872 897.888, 717.177 894.872 C 714.426 891.793, 714.103 891.703, 704.427 891.330 C 697.214 891.052, 693.633 891.342, 691.329 892.392" stroke="none" fill="#6bcb53" fill-rule="evenodd"></path><path d="M 1 512 L 1 1023 516 1023 L 1031 1023 1031 512 L 1031 1 516 1 L 1 1 1 512 M 517.500 25.593 C 514.750 25.803, 506.088 26.435, 498.251 26.996 C 419.372 32.643, 341.350 62.117, 275.165 111.272 C 244.596 133.975, 209.237 169.161, 186.504 199.500 C 147.686 251.304, 120.656 307.983, 105.513 369.333 C 90.665 429.482, 88.162 495.733, 98.657 550.821 C 100.090 558.345, 101.480 565.738, 101.745 567.250 C 102.571 571.962, 104.492 570.275, 105.731 563.750 C 114.275 518.753, 150.067 456.690, 204 393.354 C 229.771 363.089, 285.787 308.696, 327 273.916 C 355.848 249.571, 399.732 215.589, 429.500 194.544 C 456.655 175.347, 463.113 170.921, 484.633 156.759 C 535.683 123.165, 581.904 96.253, 631.756 71.096 C 651.514 61.125, 654.455 58.645, 654.455 51.948 C 654.455 47.471, 651.974 43.555, 647.757 41.375 C 640.809 37.781, 607.072 31.045, 580.500 27.946 C 564.482 26.078, 528.640 24.739, 517.500 25.593 M 724.301 92.003 C 686.061 95.999, 639.503 112.284, 585.112 140.689 C 575.975 145.461, 562.375 152.383, 554.889 156.072 C 518.864 173.825, 456.174 212.296, 413.500 242.839 C 326.884 304.833, 268.960 356.262, 213.585 420.339 C 198.448 437.855, 166.010 484.421, 164.246 491.169 C 163.335 494.651, 166.281 492.991, 174.745 485.250 C 259.026 408.176, 408.120 303.422, 580 200.514 C 597.325 190.142, 614.146 179.595, 617.380 177.077 C 620.614 174.560, 625.564 171.213, 628.380 169.639 C 631.196 168.066, 638.225 163.729, 644 160.003 C 698.389 124.904, 733.004 106.880, 759.250 99.993 C 764.444 98.630, 768 97.182, 768 96.429 C 768 93.116, 740.399 90.321, 724.301 92.003 M 797.992 136.030 C 778.320 137.806, 753.090 145.669, 725 158.778 C 660.350 188.949, 576.191 235.554, 496 285.592 C 447.449 315.888, 426.507 329.604, 426.176 331.325 C 425.926 332.623, 427.681 333.908, 433.171 336.447 C 460.964 349.302, 496.695 372.774, 521.270 394.318 C 536.508 407.675, 570.359 440.691, 582.436 453.973 C 588.451 460.588, 594.076 465.999, 594.936 465.997 C 595.796 465.995, 599.941 463.183, 604.146 459.747 C 699.561 381.791, 775.788 324.778, 856.836 270.750 C 876.879 257.390, 890.371 247.698, 893.598 244.345 C 912.260 224.954, 912.168 196.286, 893.365 171.830 C 883.158 158.553, 863.313 145.693, 844.500 140.163 C 831.079 136.219, 813.357 134.644, 797.992 136.030 M 276 172.593 C 255.332 178.083, 240.006 195.163, 236.914 216.152 C 232.546 245.793, 255.135 272.131, 284.971 272.186 C 316.282 272.244, 341.740 243.359, 337.135 213 C 332.732 183.970, 304.189 165.105, 276 172.593 M 918 294.499 C 884.806 303.531, 756.618 392.871, 640.500 487.902 C 599.916 521.116, 539.882 573.025, 507.465 602.932 C 504.146 605.995, 491.870 617.275, 480.185 628 C 468.500 638.725, 457.793 649.231, 456.391 651.348 C 448.983 662.532, 449.289 674.309, 457.144 680.293 C 464.060 685.562, 477.153 686.325, 489.113 682.158 C 497.274 679.314, 528.673 664.651, 558.039 649.971 C 641.842 608.077, 725.703 572.082, 787.500 551.482 C 852.437 529.836, 915.534 515.834, 961.220 512.931 C 978.897 511.808, 983.101 510.674, 990.614 505.002 C 994.567 502.018, 996.667 499.392, 999.176 494.300 C 1002.471 487.612, 1002.503 487.408, 1002.838 471.154 C 1003.352 446.253, 1000.494 416.018, 994.933 387.500 C 988.871 356.420, 984.481 344.964, 969.213 320.398 C 960.086 305.712, 955.655 301.137, 946.333 296.775 C 938.425 293.074, 926.699 292.133, 918 294.499 M 385.495 357.301 C 336.626 390.277, 306 412.380, 306 414.672 C 306 415.501, 316.297 426.580, 328.882 439.292 L 351.764 462.404 357.632 459.293 C 376.742 449.161, 398.686 448.860, 414 458.521 C 419.190 461.795, 426.841 470.415, 429.321 475.783 C 431.122 479.682, 431.500 482.322, 431.500 491 C 431.500 500.986, 431.324 501.868, 427.913 509.012 C 425.939 513.143, 422.227 519.099, 419.663 522.247 C 417.098 525.396, 415.001 528.316, 415.002 528.736 C 415.006 530.002, 461.965 578.475, 463.523 578.820 C 464.317 578.996, 473.828 571.346, 484.660 561.820 C 522.956 528.142, 562.287 494.375, 579.250 480.613 C 581.862 478.493, 584 475.994, 584 475.060 C 584 471.479, 550.943 437, 547.510 437 C 545.861 437, 537.873 442.620, 512 461.984 C 505.675 466.718, 499.972 470.913, 499.328 471.306 C 498.640 471.726, 494.092 468.847, 488.328 464.344 C 479.952 457.801, 421.845 410.819, 414.096 404.325 C 412.401 402.904, 411.847 401.823, 412.500 401.209 C 413.050 400.691, 421.600 394.720, 431.500 387.940 C 457.359 370.228, 460.886 367.639, 460.946 366.322 C 460.976 365.675, 458.413 363.574, 455.250 361.653 C 445.164 355.529, 414.695 340.998, 412.050 341.051 C 410.466 341.083, 400.406 347.239, 385.495 357.301 M 457.301 379.750 C 451.258 384.012, 441.747 390.650, 436.166 394.500 C 430.586 398.350, 426.015 402.014, 426.010 402.642 C 425.991 404.857, 495.109 461, 497.856 461 C 499.980 461, 538.814 433.280, 540.425 430.614 C 541.326 429.122, 540.670 428.081, 536.362 424.167 C 533.537 421.600, 526.373 415.074, 520.443 409.665 C 500.549 391.516, 474.650 372, 470.461 372 C 469.266 372, 463.344 375.488, 457.301 379.750 M 288 426.290 C 210.033 485.456, 165.276 524.499, 151.528 545.339 C 128.452 580.320, 126.959 622.865, 147.608 657.093 C 153.150 666.281, 158.556 673, 160.406 673 C 161.093 673, 167.053 668.388, 173.650 662.750 C 180.247 657.112, 190.966 648, 197.471 642.500 C 203.976 637, 214.325 628.225, 220.470 623 C 238.115 607.995, 274.967 577.527, 275.829 577.231 C 276.260 577.084, 277.400 578.616, 278.364 580.637 C 279.802 583.652, 279.881 584.528, 278.808 585.514 C 278.089 586.175, 263.100 599.243, 245.500 614.554 C 189.661 663.132, 169.870 681.085, 170.209 682.856 C 170.689 685.366, 183.366 694.455, 194.111 699.992 C 205.002 705.605, 217.545 710.033, 230 712.663 C 242.274 715.255, 274.112 715.244, 285.947 712.644 C 297.819 710.035, 308.013 706.576, 318.664 701.541 C 335.519 693.573, 341.400 689.156, 374.602 659.529 C 411.208 626.866, 436.765 604.222, 445.770 596.475 C 452.715 590.499, 454.972 587.969, 454.770 586.381 C 454.498 584.245, 408.538 535, 406.816 535 C 406.307 535, 402.878 536.819, 399.195 539.043 C 382.402 549.184, 360.385 550.359, 343.978 541.989 C 337.897 538.887, 330.583 531.517, 327.459 525.345 C 324.714 519.923, 324.500 518.705, 324.500 508.500 C 324.500 497.920, 324.638 497.210, 328.123 489.913 C 330.116 485.740, 334.279 479.341, 337.373 475.693 C 340.468 472.045, 343 468.452, 343 467.710 C 343 466.967, 332.866 456.378, 320.481 444.179 C 304.311 428.254, 297.332 422.016, 295.731 422.058 C 294.504 422.090, 291.025 423.994, 288 426.290 M 914.168 425.146 C 902.183 431.078, 900.875 448.417, 911.862 455.718 C 928.295 466.637, 947.480 447.413, 936.583 430.946 C 931.666 423.515, 922.338 421.102, 914.168 425.146 M 855.502 436.575 C 850.993 438.926, 848.908 441.085, 846.881 445.500 C 842.204 455.685, 847.658 467.134, 858.631 470.164 C 870.928 473.559, 883.502 460.750, 880.097 448.295 C 877.143 437.490, 864.919 431.665, 855.502 436.575 M 800.123 448.992 C 790.631 451.261, 784.460 461.568, 786.984 470.940 C 789.122 478.879, 795.793 484, 804 484 C 818.040 484, 826.461 468.571, 819.005 456.508 C 815.539 450.901, 806.760 447.406, 800.123 448.992 M 379 461.690 C 367.957 463.537, 354.154 471.474, 346.127 480.593 C 336.807 491.181, 332.838 505.975, 336.422 516.765 C 341.111 530.884, 358.225 539.760, 375.451 537.008 C 393.998 534.045, 410.042 522.625, 417.297 507.223 C 420.072 501.332, 420.465 499.448, 420.475 492 C 420.485 484.717, 420.107 482.784, 417.836 478.500 C 411.125 465.836, 395.263 458.971, 379 461.690 M 374.237 490.997 C 369.605 493.821, 367.316 498.935, 368.935 502.843 C 371.572 509.209, 381.094 509.243, 386.426 502.905 C 393.707 494.252, 384.174 484.939, 374.237 490.997 M 951.500 565.628 C 949.850 565.809, 943.325 566.454, 937 567.062 C 873.515 573.164, 782.269 600.056, 693 638.973 C 668.425 649.687, 647.521 659.550, 596.602 684.455 C 577.874 693.615, 572.446 696.820, 559.102 706.595 C 475.007 768.199, 427.531 821.550, 417.849 865.328 C 409.053 905.099, 427.436 941.474, 466.536 961.668 C 479.040 968.125, 503.515 975.965, 511.250 975.991 L 514 976 514.017 890.250 C 514.036 796.375, 514.001 797.006, 519.947 784.300 C 523.321 777.089, 532.264 767.103, 538.755 763.298 C 546.874 758.539, 553.115 756.723, 563.500 756.100 L 573.500 755.500 574.021 744.500 C 574.622 731.784, 575.831 728.637, 581.157 725.920 C 585.689 723.608, 590.076 723.471, 594.033 725.517 C 598.787 727.976, 600.316 732.175, 600.942 744.500 L 601.500 755.500 642.884 755.761 C 672.603 755.949, 684.653 755.703, 685.634 754.889 C 686.616 754.074, 687 751.043, 687 744.112 C 687 736.691, 687.423 733.666, 688.835 730.984 C 693.653 721.835, 707.279 722.192, 711.945 731.590 C 712.776 733.264, 713.625 738.959, 713.945 745 L 714.500 755.500 724.500 756.144 C 730 756.499, 735.854 757.224, 737.509 757.756 C 747.206 760.871, 758.997 769.776, 765.025 778.536 C 766.626 780.863, 769.188 786.307, 770.718 790.634 L 773.500 798.500 773.808 857.250 C 774.064 906.091, 774.347 916, 775.482 916 C 777.427 916, 802.355 899.343, 816.267 888.749 C 903.811 822.078, 967.673 719.993, 989.991 611.044 C 993.670 593.085, 993.790 587.238, 990.619 580.429 C 985.112 568.601, 971.474 563.441, 951.500 565.628 M 144 716.075 C 144 718.177, 154.809 739.846, 162.950 754.064 C 209.733 835.773, 279.375 900.380, 361.500 938.261 C 382.848 948.108, 419.457 962, 424.058 962 C 427.581 962, 426.086 959.391, 420.284 955.416 C 412.506 950.087, 400.302 937.852, 395.105 930.175 C 384.668 914.756, 380.647 897.914, 382.927 879.165 C 386.351 851.001, 400.327 827.521, 432.148 796.471 C 451.213 777.868, 467.928 763.744, 504.289 735.513 C 511.407 729.987, 513.706 727, 510.843 727 C 510.207 727, 502.444 730.335, 493.593 734.412 C 442.904 757.757, 399.899 771.851, 360 778.195 C 347.257 780.221, 341.986 780.497, 316.500 780.479 C 289.284 780.460, 286.528 780.287, 271.699 777.675 C 225.616 769.559, 187.655 751.584, 154.153 722.013 C 146.491 715.251, 144 713.794, 144 716.075 M 530.459 808.250 C 529.664 810.327, 530.442 976.776, 531.250 977.584 C 533.903 980.235, 575.146 979.864, 600.500 976.961 C 630.052 973.576, 658.239 967.252, 687.633 957.411 C 714.377 948.457, 754.746 930.212, 756.958 926.078 C 758.082 923.978, 758.499 811.463, 757.393 808.582 C 756.844 807.152, 745.911 807, 643.862 807 C 554.444 807, 530.838 807.260, 530.459 808.250 M 569.923 838.923 C 567.088 841.758, 567 842.143, 567.004 851.673 C 567.010 867.780, 569.065 869.542, 587.035 868.851 C 595.606 868.522, 596.324 868.326, 598.587 865.694 C 600.807 863.113, 601 862.046, 601 852.367 C 601 842.072, 600.937 841.783, 598.077 838.923 C 595.196 836.042, 594.995 836, 584 836 C 573.005 836, 572.804 836.042, 569.923 838.923 M 629.306 838.413 C 626.696 840.658, 626.475 841.439, 626.141 849.577 C 625.452 866.340, 627.830 869, 643.500 869 C 658.638 869, 660.982 866.684, 660.994 851.718 C 661.001 844.162, 659.197 838.711, 656.150 837.080 C 655.040 836.486, 649.177 836, 643.122 836 C 632.925 836, 631.904 836.178, 629.306 838.413 M 690.500 837.208 C 686.563 839.465, 686.064 841.191, 686.032 852.661 L 686 863.822 689.077 866.411 C 691.931 868.813, 692.865 869, 702.012 869 C 707.434 869, 713.003 868.569, 714.387 868.043 C 718.438 866.503, 720 862.177, 720 852.500 C 720 843.366, 718.577 838.914, 715.055 837.030 C 712.435 835.627, 693.010 835.768, 690.500 837.208 M 578.300 891.697 C 572.864 892.044, 571.785 892.466, 569.550 895.123 C 567.209 897.905, 567 898.932, 567 907.626 C 567 917.469, 568.352 922.154, 571.546 923.379 C 575.105 924.745, 589.616 925.203, 593.743 924.081 C 599.760 922.444, 601 919.558, 601 907.196 C 601 898.069, 600.808 897.084, 598.548 894.646 C 597.199 893.191, 595.062 891.995, 593.798 891.989 C 592.534 891.983, 589.925 891.826, 588 891.640 C 586.075 891.454, 581.710 891.479, 578.300 891.697 M 633.873 891.773 C 632.428 891.958, 630.178 893.245, 628.873 894.633 C 626.753 896.887, 626.464 898.246, 626.164 907.399 C 625.840 917.276, 625.924 917.756, 628.503 920.821 L 631.178 924 643.033 924 C 654.122 924, 655.070 923.844, 657.694 921.587 C 660.454 919.214, 660.500 918.994, 660.500 908.112 C 660.500 897.502, 660.393 896.942, 657.871 894.419 C 655.439 891.984, 654.543 891.775, 645.871 891.613 C 640.717 891.516, 635.318 891.589, 633.873 891.773 M 691.329 892.392 C 689.585 893.187, 687.672 894.744, 687.079 895.853 C 686.485 896.961, 686 902.644, 686 908.480 C 686 918.413, 686.157 919.248, 688.455 921.545 C 690.787 923.878, 691.504 924, 702.866 924 L 714.822 924 717.411 920.923 C 719.815 918.066, 720 917.139, 720 907.939 C 720 898.482, 719.872 897.888, 717.177 894.872 C 714.426 891.793, 714.103 891.703, 704.427 891.330 C 697.214 891.052, 693.633 891.342, 691.329 892.392" stroke="none" fill="none" fill-rule="evenodd"></path></svg>